# ProBuilder 4.2.3
# https://unity3d.com/unity/features/worldbuilding/probuilder
# 02-02-2020 02:34:28

mtllib ./Parachuteup.mtl
o Parachuteup

g Parachute
v 3.814697E-06 2.946655 4.291534E-06
v 1.1257 0 7.107391
v 23.00005 21.69849 1.382828E-05
v 23.00002 9.861023 6.67572E-06
v 4.392609 0 13.51906
v 9.480938 1.594727 18.6074
v 15.89261 1.594727 21.87431
v 23 0 23
v 30.1074 3.758423 21.87431
v 36.51907 3.758423 18.6074
v 41.60739 0 13.51906
v 44.8743 0 7.107392
v 46.00001 3.50116 -4.768372E-07
v 44.87431 3.50116 -7.107389
v 41.60739 0 -13.51906
v 36.51907 0 -18.60739
v 30.1074 2.896912 -21.8743
v 23.00001 2.896912 -23
v 15.89261 0 -21.8743
v 9.480944 0 -18.60739
v 4.392611 0 -13.51906
v 1.125702 2.946655 -7.107385

vt 0 0
vt 7.195985 5.380554E-08
vt 3.597992 23.77087
vt 0.8483354 -1.142178
vt 1.07804 6.630347
vt 24.86519 -1.142175
vt 1.049907 7.063703
vt 4.096855 13.58277
vt 25.00861 -0.1627387
vt 4.022356 13.63217
vt 9.322615 18.75395
vt 25.0239 0.02425091
vt 9.61408 17.71415
vt 15.94002 21.14414
vt 24.29972 -1.822083
vt 15.45504 18.56905
vt 22.72351 19.79157
vt 21.19913 -5.186735
vt 20.88815 24.92576
vt 28.91614 23.71774
vt 25.01579 0.2437443
vt 29.43095 19.57687
vt 35.79546 16.21902
vt 21.63706 -2.906381
vt 29.09336 20.80012
vt 35.39757 15.68496
vt 14.38468 2.094619
vt 38.80596 10.58309
vt 41.85291 4.064016
vt 17.89425 -3.162426
vt 43.25123 0.8209776
vt 43.40311 -7.180103
vt 19.54002 -7.180095
vt 43.40312 0.6593587
vt 42.31813 -6.45436
vt 19.54003 0.6593658
vt 44.32492 -2.122527
vt 41.41213 -9.576119
vt 21.93786 6.139852
vt 39.77583 -9.534554
vt 34.91149 -14.83742
vt 19.09401 4.554508
vt 32.30968 -16.25346
vt 25.28682 -19.54795
vt 15.75275 2.511062
vt 29.93407 -19.6825
vt 22.83484 -20.85856
vt 22.50126 3.170337
vt 22.13146 -24.00621
vt 14.46263 -22.83855
vt 25.01851 -0.1490481
vt 15.59271 -21.54152
vt 9.302035 -18.04731
vt 24.47265 1.854784
vt 9.063592 -18.63791
vt 4.199247 -13.33504
vt 24.8811 0.7540253
vt 4.348326 -12.24945
vt 1.531716 -5.001572
vt 24.16486 3.032758
vt 1.926373 -6.98623
vt 0.8483351 0.1285443
vt 24.86519 0.1285467

vn -0.5823036 0.714224 0.3883381
vn 0.2632596 -0.8757091 -0.4047568
vn -0.6154291 0.7231297 0.3135767
vn 0.3547873 -0.9173042 -0.1807732
vn -0.5863445 0.7263097 0.3587123
vn 0.3992155 -0.90973 -0.1140981
vn -0.30087 0.7488642 0.590491
vn 0.1552414 -0.9397187 -0.3046785
vn 0.05444022 0.7263088 0.6852093
vn -0.1423458 -0.9097297 -0.3900379
vn -0.2660159 0.7011791 0.6615009
vn 0.3900543 -0.8462897 -0.3628381
vn 0.2813683 0.7847862 0.5522159
vn -0.1177832 -0.9657593 -0.2311623
vn 0.6915263 0.7011783 0.1736101
vn -0.5228108 -0.8462895 0.1022892
vn 0.6154304 0.7231283 0.3135774
vn -0.3547879 -0.9173039 -0.1807734
vn 0.5583669 0.7057304 0.4360859
vn -0.2367462 -0.8561748 -0.4592559
vn 0.6174983 0.7804682 -0.09780198
vn -0.2662775 -0.9629733 0.04217415
vn 0.3962799 0.7057309 -0.5872872
vn -0.08324078 -0.8561749 0.5099368
vn 0.4884083 0.7231287 -0.4884079
vn -0.2815613 -0.917304 0.281561
vn 0.5457397 0.7148913 -0.4371485
vn -0.4621921 -0.8773264 0.1291391
vn 0.09974223 0.7703705 -0.6297467
vn -0.04585073 -0.9560823 0.2894897
vn -0.3839427 0.7148923 -0.5843946
vn 0.3996643 -0.8773267 0.2656431
vn -0.3135768 0.7231297 -0.6154292
vn 0.1807732 -0.9173042 0.3547874
vn -0.4884071 0.7231299 -0.4884073
vn 0.2815607 -0.9173042 0.2815608
vn -0.4338008 0.7142242 -0.5492729
vn 0.1252982 -0.8757093 0.4662978
vn -0.6287556 0.7711999 -0.09958495
vn 0.2875976 -0.9566675 0.04555092

usemtl ProBuilderDefault
f 1/1/1 2/2/1 3/3/1
f 4/6/2 2/5/2 1/4/2
f 2/1/3 5/2/3 3/3/3
f 4/9/4 5/8/4 2/7/4
f 5/1/5 6/2/5 3/3/5
f 4/12/6 6/11/6 5/10/6
f 6/1/7 7/2/7 3/3/7
f 4/15/8 7/14/8 6/13/8
f 7/1/9 8/2/9 3/3/9
f 4/18/10 8/17/10 7/16/10
f 8/1/11 9/2/11 3/3/11
f 4/21/12 9/20/12 8/19/12
f 9/1/13 10/2/13 3/3/13
f 4/24/14 10/23/14 9/22/14
f 10/1/15 11/2/15 3/3/15
f 4/27/16 11/26/16 10/25/16
f 11/1/17 12/2/17 3/3/17
f 4/30/18 12/29/18 11/28/18
f 12/1/19 13/2/19 3/3/19
f 4/33/20 13/32/20 12/31/20
f 13/1/21 14/2/21 3/3/21
f 4/36/22 14/35/22 13/34/22
f 14/1/23 15/2/23 3/3/23
f 4/39/24 15/38/24 14/37/24
f 15/1/25 16/2/25 3/3/25
f 4/42/26 16/41/26 15/40/26
f 16/1/27 17/2/27 3/3/27
f 4/45/28 17/44/28 16/43/28
f 17/1/29 18/2/29 3/3/29
f 4/48/30 18/47/30 17/46/30
f 18/1/31 19/2/31 3/3/31
f 4/51/32 19/50/32 18/49/32
f 19/1/33 20/2/33 3/3/33
f 4/54/34 20/53/34 19/52/34
f 20/1/35 21/2/35 3/3/35
f 4/57/36 21/56/36 20/55/36
f 21/1/37 22/2/37 3/3/37
f 4/60/38 22/59/38 21/58/38
f 22/1/39 1/2/39 3/3/39
f 4/63/40 1/62/40 22/61/40

