# ProBuilder 4.2.3
# https://unity3d.com/unity/features/worldbuilding/probuilder
# 02-02-2020 02:35:50

mtllib ./rope_(1).mtl
o rope (1)

g rope (1)
v 0.05 0 0.08660255
v 0 0 0
v 0.05 1 0.08660255
v 0 1 0
v 0.09 0 0
v 0.09500001 0 0.008660253
v 0.09 1 0
v 0.09500001 1 0.008660253
v 0.15 0 0.08660254
v 0.15 1 0.08660254
v 0.105 0 0.008660252
v 0.105 1 0.008660252
v 0.2 0 -8.742278E-09
v 0.2 1 -8.742278E-09
v 0.11 0 -8.742276E-10
v 0.11 1 -8.742276E-10
v 0.15 0 -0.08660255
v 0.15 1 -0.08660255
v 0.105 0 -0.008660253
v 0.105 1 -0.008660253
v 0.05000001 0 -0.08660255
v 0.05000001 1 -0.08660255
v 0.09500001 0 -0.008660253
v 0.09500001 1 -0.008660253
v 0.05 2 0.08660255
v 0 2 0
v 0.09 2 0
v 0.09500001 2 0.008660253
v 0.15 2 0.08660254
v 0.105 2 0.008660252
v 0.2 2 -8.742278E-09
v 0.11 2 -8.742276E-10
v 0.15 2 -0.08660255
v 0.105 2 -0.008660253
v 0.05000001 2 -0.08660255
v 0.09500001 2 -0.008660253

vt 0.1 0
vt 0 0
vt 0.1 1
vt 0 1
vt -0.04500002 0
vt -0.05500002 0
vt -0.04500002 1
vt -0.05500002 1
vt 0.15 0
vt 0.05 0
vt 0.15 1
vt 0.05 1
vt -0.09500001 0
vt -0.105 0
vt -0.09500001 1
vt -0.105 1
vt -0.04499997 0
vt -0.05499997 0
vt -0.04499997 1
vt -0.05499997 1
vt -0.1 0
vt -0.1 1
vt 0.05500003 0
vt 0.04500003 0
vt 0.05500003 1
vt 0.04500003 1
vt -0.05000001 0
vt -0.15 0
vt -0.05000001 1
vt -0.15 1
vt 0.105 0
vt 0.09500001 0
vt 0.105 1
vt 0.09500001 1
vt 0.1 2
vt 0 2
vt -0.04500002 2
vt -0.05500002 2
vt 0.15 2
vt 0.05 2
vt -0.09500001 2
vt -0.105 2
vt -0.04499997 2
vt -0.05499997 2
vt -0.1 2
vt 0.05500003 2
vt 0.04500003 2
vt -0.05000001 2
vt -0.15 2
vt 0.105 2
vt 0.09500001 2
vt 0.05 0.08660255
vt 0.09 0
vt 0.09500001 0.008660253
vt -0.05 0.08660255
vt -0.09500001 0.008660253
vt -0.09 0
vt 0.15 0.08660254
vt 0.105 0.008660252
vt -0.15 0.08660254
vt -0.105 0.008660252
vt 0.2 -8.742278E-09
vt 0.11 -8.742276E-10
vt -0.2 -8.742278E-09
vt -0.11 -8.742276E-10
vt 0.15 -0.08660255
vt 0.105 -0.008660253
vt -0.15 -0.08660255
vt -0.105 -0.008660253
vt 0.05000001 -0.08660255
vt 0.09500001 -0.008660253
vt -0.05000001 -0.08660255
vt -0.09500001 -0.008660253

vn -0.8660254 0 0.5
vn 0.8660253 0 -0.5000002
vn 7.450581E-08 0 1
vn -9.313228E-08 0 -1
vn 0.8660254 0 0.5
vn -0.8660256 0 -0.4999997
vn -0.8660254 0 -0.5000001
vn 0.8660253 0 0.5000002
vn 0 -1 0
vn 0 1 0

usemtl ProBuilderDefault
f 3/3/1 4/4/1 2/2/1 1/1/1
f 7/7/2 8/8/2 6/6/2 5/5/2
f 10/11/3 3/12/3 1/10/3 9/9/3
f 8/15/4 12/16/4 11/14/4 6/13/4
f 14/3/5 10/4/5 9/2/5 13/1/5
f 12/19/6 16/20/6 15/18/6 11/17/6
f 18/4/2 14/22/2 13/21/2 17/2/2
f 16/25/1 20/26/1 19/24/1 15/23/1
f 22/29/4 18/30/4 17/28/4 21/27/4
f 20/33/3 24/34/3 23/32/3 19/31/3
f 4/4/7 22/22/7 21/21/7 2/2/7
f 24/25/8 7/26/8 5/24/8 23/23/8
f 25/35/1 26/36/1 4/4/1 3/3/1
f 27/37/2 28/38/2 8/8/2 7/7/2
f 29/39/3 25/40/3 3/12/3 10/11/3
f 28/41/4 30/42/4 12/16/4 8/15/4
f 31/35/5 29/36/5 10/4/5 14/3/5
f 30/43/6 32/44/6 16/20/6 12/19/6
f 33/36/2 31/45/2 14/22/2 18/4/2
f 32/46/1 34/47/1 20/26/1 16/25/1
f 35/48/4 33/49/4 18/30/4 22/29/4
f 34/50/3 36/51/3 24/34/3 20/33/3
f 26/36/7 35/45/7 22/22/7 4/4/7
f 36/46/8 27/47/8 7/26/8 24/25/8
f 5/53/9 6/54/9 1/52/9 2/2/9
f 28/56/10 27/57/10 26/2/10 25/55/10
f 6/54/9 11/59/9 9/58/9 1/52/9
f 30/61/10 28/56/10 25/55/10 29/60/10
f 11/59/9 15/63/9 13/62/9 9/58/9
f 32/65/10 30/61/10 29/60/10 31/64/10
f 15/63/9 19/67/9 17/66/9 13/62/9
f 34/69/10 32/65/10 31/64/10 33/68/10
f 19/67/9 23/71/9 21/70/9 17/66/9
f 36/73/10 34/69/10 33/68/10 35/72/10
f 23/71/9 5/53/9 2/2/9 21/70/9
f 27/57/10 36/73/10 35/72/10 26/2/10

